STARTFONT 2.1
FONT -Fondu-Courier-Medium-R-Normal--12-120-75-75-P-70-MacRoman-1
SIZE 12 75 75
FONTBOUNDINGBOX 10 12 0 -2
COMMENT Created by Fondu from a mac NFNT/FONT resource
STARTPROPERTIES 17
FOUNDRY "Fondu"
FAMILY_NAME "Courier"
WEIGHT_NAME "Medium"
SLANT "R"
SETWIDTH_NAME "Normal"
ADD_STYLE_NAME ""
PIXEL_SIZE 12
POINT_SIZE 120
RESOLUTION_X 75
RESOLUTION_Y 75
SPACING "P"
AVERAGE_WIDTH 70
CHARSET_REGISTRY "MacRoman"
CHARSET_ENCODING "1"
FONT_ASCENT 10
FONT_DESCENT 2
FACE_NAME "Courier"
ENDPROPERTIES
CHARS 223
STARTCHAR space
ENCODING 32
SWIDTH 600 0
DWIDTH 7 0
BBX 0 0 7 -2
BITMAP
ENDCHAR
STARTCHAR exclam
ENCODING 33
SWIDTH 600 0
DWIDTH 7 0
BBX 1 8 3 0
BITMAP
80
80
80
80
80
80
00
80
ENDCHAR
STARTCHAR quotedbl
ENCODING 34
SWIDTH 600 0
DWIDTH 7 0
BBX 3 3 2 5
BITMAP
A0
A0
A0
ENDCHAR
STARTCHAR numbersign
ENCODING 35
SWIDTH 600 0
DWIDTH 7 0
BBX 5 7 1 1
BITMAP
50
50
F8
50
F8
50
50
ENDCHAR
STARTCHAR dollar
ENCODING 36
SWIDTH 600 0
DWIDTH 7 0
BBX 5 10 1 -1
BITMAP
20
70
A8
A0
70
28
28
A8
70
20
ENDCHAR
STARTCHAR percent
ENCODING 37
SWIDTH 600 0
DWIDTH 7 0
BBX 6 8 0 0
BITMAP
44
A4
A8
50
28
54
94
88
ENDCHAR
STARTCHAR ampersand
ENCODING 38
SWIDTH 600 0
DWIDTH 7 0
BBX 6 8 0 0
BITMAP
60
90
80
40
A0
94
88
74
ENDCHAR
STARTCHAR quotesingle
ENCODING 39
SWIDTH 600 0
DWIDTH 7 0
BBX 1 3 2 5
BITMAP
80
80
80
ENDCHAR
STARTCHAR parenleft
ENCODING 40
SWIDTH 600 0
DWIDTH 7 0
BBX 3 10 2 -2
BITMAP
20
40
40
80
80
80
80
40
40
20
ENDCHAR
STARTCHAR parenright
ENCODING 41
SWIDTH 600 0
DWIDTH 7 0
BBX 3 10 2 -2
BITMAP
80
40
40
20
20
20
20
40
40
80
ENDCHAR
STARTCHAR asterisk
ENCODING 42
SWIDTH 600 0
DWIDTH 7 0
BBX 5 6 1 2
BITMAP
20
A8
70
70
A8
20
ENDCHAR
STARTCHAR plus
ENCODING 43
SWIDTH 600 0
DWIDTH 7 0
BBX 5 5 1 1
BITMAP
20
20
F8
20
20
ENDCHAR
STARTCHAR comma
ENCODING 44
SWIDTH 600 0
DWIDTH 7 0
BBX 2 2 2 -1
BITMAP
40
80
ENDCHAR
STARTCHAR hyphen
ENCODING 45
SWIDTH 600 0
DWIDTH 7 0
BBX 5 1 1 3
BITMAP
F8
ENDCHAR
STARTCHAR period
ENCODING 46
SWIDTH 600 0
DWIDTH 7 0
BBX 1 1 2 0
BITMAP
80
ENDCHAR
STARTCHAR slash
ENCODING 47
SWIDTH 600 0
DWIDTH 7 0
BBX 4 8 1 0
BITMAP
10
10
20
20
40
40
80
80
ENDCHAR
STARTCHAR zero
ENCODING 48
SWIDTH 600 0
DWIDTH 7 0
BBX 5 8 1 0
BITMAP
70
88
88
88
88
88
88
70
ENDCHAR
STARTCHAR one
ENCODING 49
SWIDTH 600 0
DWIDTH 7 0
BBX 5 8 1 0
BITMAP
20
60
A0
20
20
20
20
F8
ENDCHAR
STARTCHAR two
ENCODING 50
SWIDTH 600 0
DWIDTH 7 0
BBX 5 8 1 0
BITMAP
70
88
08
10
20
40
88
F8
ENDCHAR
STARTCHAR three
ENCODING 51
SWIDTH 600 0
DWIDTH 7 0
BBX 5 8 1 0
BITMAP
70
88
08
30
08
08
88
70
ENDCHAR
STARTCHAR four
ENCODING 52
SWIDTH 600 0
DWIDTH 7 0
BBX 5 8 1 0
BITMAP
10
30
50
90
F8
10
10
38
ENDCHAR
STARTCHAR five
ENCODING 53
SWIDTH 600 0
DWIDTH 7 0
BBX 5 8 1 0
BITMAP
F8
80
80
F0
88
08
88
70
ENDCHAR
STARTCHAR six
ENCODING 54
SWIDTH 600 0
DWIDTH 7 0
BBX 5 8 1 0
BITMAP
30
40
80
F0
88
88
88
70
ENDCHAR
STARTCHAR seven
ENCODING 55
SWIDTH 600 0
DWIDTH 7 0
BBX 5 8 1 0
BITMAP
F8
88
08
10
10
20
20
20
ENDCHAR
STARTCHAR eight
ENCODING 56
SWIDTH 600 0
DWIDTH 7 0
BBX 5 8 1 0
BITMAP
70
88
88
70
88
88
88
70
ENDCHAR
STARTCHAR nine
ENCODING 57
SWIDTH 600 0
DWIDTH 7 0
BBX 5 8 1 0
BITMAP
70
88
88
88
78
08
10
60
ENDCHAR
STARTCHAR colon
ENCODING 58
SWIDTH 600 0
DWIDTH 7 0
BBX 1 6 3 0
BITMAP
80
00
00
00
00
80
ENDCHAR
STARTCHAR semicolon
ENCODING 59
SWIDTH 600 0
DWIDTH 7 0
BBX 2 7 2 -1
BITMAP
40
00
00
00
00
40
80
ENDCHAR
STARTCHAR less
ENCODING 60
SWIDTH 600 0
DWIDTH 7 0
BBX 6 5 0 1
BITMAP
0C
30
C0
30
0C
ENDCHAR
STARTCHAR equal
ENCODING 61
SWIDTH 600 0
DWIDTH 7 0
BBX 6 3 0 2
BITMAP
FC
00
FC
ENDCHAR
STARTCHAR greater
ENCODING 62
SWIDTH 600 0
DWIDTH 7 0
BBX 6 5 0 1
BITMAP
C0
30
0C
30
C0
ENDCHAR
STARTCHAR question
ENCODING 63
SWIDTH 600 0
DWIDTH 7 0
BBX 5 8 1 0
BITMAP
70
88
88
08
10
20
00
20
ENDCHAR
STARTCHAR at
ENCODING 64
SWIDTH 600 0
DWIDTH 7 0
BBX 6 9 0 -1
BITMAP
38
44
9C
A4
A4
A4
9C
40
3C
ENDCHAR
STARTCHAR A
ENCODING 65
SWIDTH 600 0
DWIDTH 7 0
BBX 7 8 0 0
BITMAP
30
10
10
28
28
7C
44
EE
ENDCHAR
STARTCHAR B
ENCODING 66
SWIDTH 600 0
DWIDTH 7 0
BBX 6 8 0 0
BITMAP
F8
44
44
78
44
44
44
F8
ENDCHAR
STARTCHAR C
ENCODING 67
SWIDTH 600 0
DWIDTH 7 0
BBX 6 8 0 0
BITMAP
3C
44
80
80
80
80
44
38
ENDCHAR
STARTCHAR D
ENCODING 68
SWIDTH 600 0
DWIDTH 7 0
BBX 6 8 0 0
BITMAP
F0
48
44
44
44
44
48
F0
ENDCHAR
STARTCHAR E
ENCODING 69
SWIDTH 600 0
DWIDTH 7 0
BBX 6 8 0 0
BITMAP
FC
44
50
70
50
40
44
FC
ENDCHAR
STARTCHAR F
ENCODING 70
SWIDTH 600 0
DWIDTH 7 0
BBX 6 8 0 0
BITMAP
FC
44
50
70
50
40
40
F0
ENDCHAR
STARTCHAR G
ENCODING 71
SWIDTH 600 0
DWIDTH 7 0
BBX 7 8 0 0
BITMAP
3C
44
80
80
8E
84
44
38
ENDCHAR
STARTCHAR H
ENCODING 72
SWIDTH 600 0
DWIDTH 7 0
BBX 7 8 0 0
BITMAP
EE
44
44
7C
44
44
44
EE
ENDCHAR
STARTCHAR I
ENCODING 73
SWIDTH 600 0
DWIDTH 7 0
BBX 5 8 1 0
BITMAP
F8
20
20
20
20
20
20
F8
ENDCHAR
STARTCHAR J
ENCODING 74
SWIDTH 600 0
DWIDTH 7 0
BBX 6 8 0 0
BITMAP
3C
08
08
08
08
88
88
70
ENDCHAR
STARTCHAR K
ENCODING 75
SWIDTH 600 0
DWIDTH 7 0
BBX 6 8 0 0
BITMAP
EC
48
50
60
60
50
48
EC
ENDCHAR
STARTCHAR L
ENCODING 76
SWIDTH 600 0
DWIDTH 7 0
BBX 6 8 0 0
BITMAP
E0
40
40
40
40
44
44
FC
ENDCHAR
STARTCHAR M
ENCODING 77
SWIDTH 600 0
DWIDTH 7 0
BBX 7 8 0 0
BITMAP
C6
6C
54
44
44
44
44
EE
ENDCHAR
STARTCHAR N
ENCODING 78
SWIDTH 600 0
DWIDTH 7 0
BBX 7 8 0 0
BITMAP
CE
64
64
54
54
4C
4C
E4
ENDCHAR
STARTCHAR O
ENCODING 79
SWIDTH 600 0
DWIDTH 7 0
BBX 6 8 0 0
BITMAP
30
48
84
84
84
84
48
30
ENDCHAR
STARTCHAR P
ENCODING 80
SWIDTH 600 0
DWIDTH 7 0
BBX 6 8 0 0
BITMAP
F8
44
44
44
78
40
40
F0
ENDCHAR
STARTCHAR Q
ENCODING 81
SWIDTH 600 0
DWIDTH 7 0
BBX 6 9 0 -1
BITMAP
30
48
84
84
84
84
48
30
4C
ENDCHAR
STARTCHAR R
ENCODING 82
SWIDTH 600 0
DWIDTH 7 0
BBX 6 8 0 0
BITMAP
F8
44
44
44
78
50
48
E4
ENDCHAR
STARTCHAR S
ENCODING 83
SWIDTH 600 0
DWIDTH 7 0
BBX 5 8 1 0
BITMAP
78
88
80
70
08
08
88
F0
ENDCHAR
STARTCHAR T
ENCODING 84
SWIDTH 600 0
DWIDTH 7 0
BBX 7 8 0 0
BITMAP
FE
92
92
10
10
10
10
38
ENDCHAR
STARTCHAR U
ENCODING 85
SWIDTH 600 0
DWIDTH 7 0
BBX 7 8 0 0
BITMAP
EE
44
44
44
44
44
44
38
ENDCHAR
STARTCHAR V
ENCODING 86
SWIDTH 600 0
DWIDTH 7 0
BBX 7 8 0 0
BITMAP
EE
44
44
28
28
10
10
10
ENDCHAR
STARTCHAR W
ENCODING 87
SWIDTH 600 0
DWIDTH 7 0
BBX 7 8 0 0
BITMAP
EE
44
54
54
54
28
28
28
ENDCHAR
STARTCHAR X
ENCODING 88
SWIDTH 600 0
DWIDTH 7 0
BBX 7 8 0 0
BITMAP
EE
44
28
10
10
28
44
EE
ENDCHAR
STARTCHAR Y
ENCODING 89
SWIDTH 600 0
DWIDTH 7 0
BBX 7 8 0 0
BITMAP
EE
44
28
10
10
10
10
38
ENDCHAR
STARTCHAR Z
ENCODING 90
SWIDTH 600 0
DWIDTH 7 0
BBX 6 8 0 0
BITMAP
FC
84
88
10
20
44
84
FC
ENDCHAR
STARTCHAR bracketleft
ENCODING 91
SWIDTH 600 0
DWIDTH 7 0
BBX 3 10 1 -2
BITMAP
E0
80
80
80
80
80
80
80
80
E0
ENDCHAR
STARTCHAR backslash
ENCODING 92
SWIDTH 600 0
DWIDTH 7 0
BBX 4 8 1 0
BITMAP
80
80
40
40
20
20
10
10
ENDCHAR
STARTCHAR bracketright
ENCODING 93
SWIDTH 600 0
DWIDTH 7 0
BBX 2 10 2 -2
BITMAP
C0
40
40
40
40
40
40
40
40
C0
ENDCHAR
STARTCHAR asciicircum
ENCODING 94
SWIDTH 600 0
DWIDTH 7 0
BBX 5 3 1 5
BITMAP
20
50
88
ENDCHAR
STARTCHAR underscore
ENCODING 95
SWIDTH 600 0
DWIDTH 7 0
BBX 7 1 0 -2
BITMAP
FE
ENDCHAR
STARTCHAR grave
ENCODING 96
SWIDTH 600 0
DWIDTH 7 0
BBX 2 2 2 6
BITMAP
80
40
ENDCHAR
STARTCHAR a
ENCODING 97
SWIDTH 600 0
DWIDTH 7 0
BBX 6 6 0 0
BITMAP
70
88
78
88
88
74
ENDCHAR
STARTCHAR b
ENCODING 98
SWIDTH 600 0
DWIDTH 7 0
BBX 6 8 0 0
BITMAP
C0
40
78
44
44
44
44
F8
ENDCHAR
STARTCHAR c
ENCODING 99
SWIDTH 600 0
DWIDTH 7 0
BBX 5 6 1 0
BITMAP
70
88
80
80
88
70
ENDCHAR
STARTCHAR d
ENCODING 100
SWIDTH 600 0
DWIDTH 7 0
BBX 6 8 0 0
BITMAP
18
08
78
88
88
88
88
7C
ENDCHAR
STARTCHAR e
ENCODING 101
SWIDTH 600 0
DWIDTH 7 0
BBX 5 6 1 0
BITMAP
70
88
F8
80
88
70
ENDCHAR
STARTCHAR f
ENCODING 102
SWIDTH 600 0
DWIDTH 7 0
BBX 4 8 1 0
BITMAP
30
40
F0
40
40
40
40
F0
ENDCHAR
STARTCHAR g
ENCODING 103
SWIDTH 600 0
DWIDTH 7 0
BBX 6 8 0 -2
BITMAP
7C
88
88
88
88
78
08
70
ENDCHAR
STARTCHAR h
ENCODING 104
SWIDTH 600 0
DWIDTH 7 0
BBX 7 8 0 0
BITMAP
C0
40
78
44
44
44
44
EE
ENDCHAR
STARTCHAR i
ENCODING 105
SWIDTH 600 0
DWIDTH 7 0
BBX 5 8 1 0
BITMAP
20
00
E0
20
20
20
20
F8
ENDCHAR
STARTCHAR j
ENCODING 106
SWIDTH 600 0
DWIDTH 7 0
BBX 4 10 1 -2
BITMAP
10
00
F0
10
10
10
10
10
10
E0
ENDCHAR
STARTCHAR k
ENCODING 107
SWIDTH 600 0
DWIDTH 7 0
BBX 6 8 0 0
BITMAP
C0
40
4C
50
60
50
48
CC
ENDCHAR
STARTCHAR l
ENCODING 108
SWIDTH 600 0
DWIDTH 7 0
BBX 5 8 1 0
BITMAP
E0
20
20
20
20
20
20
F8
ENDCHAR
STARTCHAR m
ENCODING 109
SWIDTH 600 0
DWIDTH 7 0
BBX 7 6 0 0
BITMAP
E8
54
54
54
54
FE
ENDCHAR
STARTCHAR n
ENCODING 110
SWIDTH 600 0
DWIDTH 7 0
BBX 7 6 0 0
BITMAP
D8
64
44
44
44
EE
ENDCHAR
STARTCHAR o
ENCODING 111
SWIDTH 600 0
DWIDTH 7 0
BBX 5 6 1 0
BITMAP
70
88
88
88
88
70
ENDCHAR
STARTCHAR p
ENCODING 112
SWIDTH 600 0
DWIDTH 7 0
BBX 6 8 0 -2
BITMAP
F8
44
44
44
44
78
40
E0
ENDCHAR
STARTCHAR q
ENCODING 113
SWIDTH 600 0
DWIDTH 7 0
BBX 6 8 1 -2
BITMAP
7C
88
88
88
88
78
08
1C
ENDCHAR
STARTCHAR r
ENCODING 114
SWIDTH 600 0
DWIDTH 7 0
BBX 5 6 1 0
BITMAP
D8
60
40
40
40
F0
ENDCHAR
STARTCHAR s
ENCODING 115
SWIDTH 600 0
DWIDTH 7 0
BBX 5 6 1 0
BITMAP
70
88
70
08
88
F0
ENDCHAR
STARTCHAR t
ENCODING 116
SWIDTH 600 0
DWIDTH 7 0
BBX 5 8 1 0
BITMAP
40
40
F0
40
40
40
48
30
ENDCHAR
STARTCHAR u
ENCODING 117
SWIDTH 600 0
DWIDTH 7 0
BBX 7 6 0 0
BITMAP
CC
44
44
44
4C
36
ENDCHAR
STARTCHAR v
ENCODING 118
SWIDTH 600 0
DWIDTH 7 0
BBX 7 6 0 0
BITMAP
EE
44
28
28
10
10
ENDCHAR
STARTCHAR w
ENCODING 119
SWIDTH 600 0
DWIDTH 7 0
BBX 7 6 0 0
BITMAP
EE
44
54
54
28
28
ENDCHAR
STARTCHAR x
ENCODING 120
SWIDTH 600 0
DWIDTH 7 0
BBX 5 6 1 0
BITMAP
D8
50
20
20
50
D8
ENDCHAR
STARTCHAR y
ENCODING 121
SWIDTH 600 0
DWIDTH 7 0
BBX 7 8 0 -2
BITMAP
EE
44
28
28
10
10
20
70
ENDCHAR
STARTCHAR z
ENCODING 122
SWIDTH 600 0
DWIDTH 7 0
BBX 5 6 1 0
BITMAP
F8
90
20
40
88
F8
ENDCHAR
STARTCHAR braceleft
ENCODING 123
SWIDTH 600 0
DWIDTH 7 0
BBX 3 10 2 -2
BITMAP
20
40
40
40
80
40
40
40
40
20
ENDCHAR
STARTCHAR bar
ENCODING 124
SWIDTH 600 0
DWIDTH 7 0
BBX 1 10 3 -2
BITMAP
80
80
80
80
80
80
80
80
80
80
ENDCHAR
STARTCHAR braceright
ENCODING 125
SWIDTH 600 0
DWIDTH 7 0
BBX 3 10 2 -2
BITMAP
80
40
40
40
20
40
40
40
40
80
ENDCHAR
STARTCHAR asciitilde
ENCODING 126
SWIDTH 600 0
DWIDTH 7 0
BBX 6 2 0 3
BITMAP
64
98
ENDCHAR
STARTCHAR Adieresis
ENCODING 128
SWIDTH 600 0
DWIDTH 7 0
BBX 7 10 0 0
BITMAP
28
00
30
10
10
28
28
7C
44
EE
ENDCHAR
STARTCHAR Aring
ENCODING 129
SWIDTH 600 0
DWIDTH 7 0
BBX 7 10 0 0
BITMAP
38
44
38
10
10
28
28
7C
44
EE
ENDCHAR
STARTCHAR Ccedilla
ENCODING 130
SWIDTH 600 0
DWIDTH 7 0
BBX 6 10 0 -2
BITMAP
3C
44
80
80
80
80
44
38
10
20
ENDCHAR
STARTCHAR Eacute
ENCODING 131
SWIDTH 600 0
DWIDTH 7 0
BBX 6 10 0 0
BITMAP
08
10
FC
44
50
70
50
44
44
FC
ENDCHAR
STARTCHAR Ntilde
ENCODING 132
SWIDTH 600 0
DWIDTH 7 0
BBX 7 10 0 0
BITMAP
34
58
CE
64
64
54
54
4C
4C
E4
ENDCHAR
STARTCHAR Odieresis
ENCODING 133
SWIDTH 600 0
DWIDTH 7 0
BBX 6 10 0 0
BITMAP
48
00
30
48
84
84
84
84
48
30
ENDCHAR
STARTCHAR Udieresis
ENCODING 134
SWIDTH 600 0
DWIDTH 7 0
BBX 7 10 0 0
BITMAP
28
00
EE
44
44
44
44
44
44
38
ENDCHAR
STARTCHAR aacute
ENCODING 135
SWIDTH 600 0
DWIDTH 7 0
BBX 6 8 0 0
BITMAP
10
20
70
88
78
88
88
74
ENDCHAR
STARTCHAR agrave
ENCODING 136
SWIDTH 600 0
DWIDTH 7 0
BBX 6 8 0 0
BITMAP
40
20
70
88
78
88
88
74
ENDCHAR
STARTCHAR acircumflex
ENCODING 137
SWIDTH 600 0
DWIDTH 7 0
BBX 6 9 0 0
BITMAP
20
50
00
70
88
78
88
88
74
ENDCHAR
STARTCHAR adieresis
ENCODING 138
SWIDTH 600 0
DWIDTH 7 0
BBX 6 8 0 0
BITMAP
50
00
70
88
78
88
88
74
ENDCHAR
STARTCHAR atilde
ENCODING 139
SWIDTH 600 0
DWIDTH 7 0
BBX 6 9 0 0
BITMAP
68
B0
00
70
88
78
88
88
74
ENDCHAR
STARTCHAR aring
ENCODING 140
SWIDTH 600 0
DWIDTH 7 0
BBX 6 9 0 0
BITMAP
20
50
20
70
88
78
88
88
74
ENDCHAR
STARTCHAR ccedilla
ENCODING 141
SWIDTH 600 0
DWIDTH 7 0
BBX 5 8 1 -2
BITMAP
70
88
80
80
88
70
20
40
ENDCHAR
STARTCHAR eacute
ENCODING 142
SWIDTH 600 0
DWIDTH 7 0
BBX 5 8 1 0
BITMAP
10
20
70
88
F8
80
88
70
ENDCHAR
STARTCHAR egrave
ENCODING 143
SWIDTH 600 0
DWIDTH 7 0
BBX 5 8 1 0
BITMAP
40
20
70
88
F8
80
88
70
ENDCHAR
STARTCHAR ecircumflex
ENCODING 144
SWIDTH 600 0
DWIDTH 7 0
BBX 5 9 1 0
BITMAP
20
50
00
70
88
F8
80
88
70
ENDCHAR
STARTCHAR edieresis
ENCODING 145
SWIDTH 600 0
DWIDTH 7 0
BBX 5 8 1 0
BITMAP
50
00
70
88
F8
80
88
70
ENDCHAR
STARTCHAR iacute
ENCODING 146
SWIDTH 600 0
DWIDTH 7 0
BBX 5 9 1 0
BITMAP
20
40
00
E0
20
20
20
20
F8
ENDCHAR
STARTCHAR igrave
ENCODING 147
SWIDTH 600 0
DWIDTH 7 0
BBX 5 9 1 0
BITMAP
40
20
00
E0
20
20
20
20
F8
ENDCHAR
STARTCHAR icircumflex
ENCODING 148
SWIDTH 600 0
DWIDTH 7 0
BBX 5 9 1 0
BITMAP
20
50
00
E0
20
20
20
20
F8
ENDCHAR
STARTCHAR idieresis
ENCODING 149
SWIDTH 600 0
DWIDTH 7 0
BBX 5 8 1 0
BITMAP
50
00
E0
20
20
20
20
F8
ENDCHAR
STARTCHAR ntilde
ENCODING 150
SWIDTH 600 0
DWIDTH 7 0
BBX 7 9 0 0
BITMAP
34
58
00
D8
64
44
44
44
EE
ENDCHAR
STARTCHAR oacute
ENCODING 151
SWIDTH 600 0
DWIDTH 7 0
BBX 5 9 1 0
BITMAP
10
20
00
70
88
88
88
88
70
ENDCHAR
STARTCHAR ograve
ENCODING 152
SWIDTH 600 0
DWIDTH 7 0
BBX 5 9 1 0
BITMAP
40
20
00
70
88
88
88
88
70
ENDCHAR
STARTCHAR ocircumflex
ENCODING 153
SWIDTH 600 0
DWIDTH 7 0
BBX 5 9 1 0
BITMAP
20
50
00
70
88
88
88
88
70
ENDCHAR
STARTCHAR odieresis
ENCODING 154
SWIDTH 600 0
DWIDTH 7 0
BBX 5 8 1 0
BITMAP
50
00
70
88
88
88
88
70
ENDCHAR
STARTCHAR otilde
ENCODING 155
SWIDTH 600 0
DWIDTH 7 0
BBX 5 9 1 0
BITMAP
68
B0
00
70
88
88
88
88
70
ENDCHAR
STARTCHAR uacute
ENCODING 156
SWIDTH 600 0
DWIDTH 7 0
BBX 7 9 0 0
BITMAP
08
10
00
CC
44
44
44
4C
36
ENDCHAR
STARTCHAR ugrave
ENCODING 157
SWIDTH 600 0
DWIDTH 7 0
BBX 7 9 0 0
BITMAP
20
10
00
CC
44
44
44
4C
36
ENDCHAR
STARTCHAR ucircumflex
ENCODING 158
SWIDTH 600 0
DWIDTH 7 0
BBX 7 9 0 0
BITMAP
10
28
00
CC
44
44
44
4C
36
ENDCHAR
STARTCHAR udieresis
ENCODING 159
SWIDTH 600 0
DWIDTH 7 0
BBX 7 8 0 0
BITMAP
28
00
CC
44
44
44
4C
36
ENDCHAR
STARTCHAR dagger
ENCODING 160
SWIDTH 600 0
DWIDTH 7 0
BBX 5 10 1 -2
BITMAP
20
20
F8
20
20
20
20
20
20
20
ENDCHAR
STARTCHAR degree
ENCODING 161
SWIDTH 400 0
DWIDTH 7 0
BBX 4 4 1 4
BITMAP
60
90
90
60
ENDCHAR
STARTCHAR cent
ENCODING 162
SWIDTH 600 0
DWIDTH 7 0
BBX 5 7 1 0
BITMAP
20
70
88
80
88
70
20
ENDCHAR
STARTCHAR sterling
ENCODING 163
SWIDTH 600 0
DWIDTH 7 0
BBX 6 8 0 0
BITMAP
30
48
40
F0
40
40
44
F8
ENDCHAR
STARTCHAR section
ENCODING 164
SWIDTH 600 0
DWIDTH 7 0
BBX 5 11 1 -2
BITMAP
70
88
40
A0
90
48
28
10
08
88
70
ENDCHAR
STARTCHAR bullet
ENCODING 165
SWIDTH 600 0
DWIDTH 7 0
BBX 5 5 0 1
BITMAP
70
F8
F8
F8
70
ENDCHAR
STARTCHAR paragraph
ENCODING 166
SWIDTH 600 0
DWIDTH 7 0
BBX 6 10 0 -2
BITMAP
7C
A8
A8
A8
68
28
28
28
28
6C
ENDCHAR
STARTCHAR germandbls
ENCODING 167
SWIDTH 600 0
DWIDTH 7 0
BBX 6 8 0 0
BITMAP
38
44
44
48
44
44
54
C8
ENDCHAR
STARTCHAR registered
ENCODING 168
SWIDTH 600 0
DWIDTH 9 0
BBX 8 8 0 0
BITMAP
3C
42
B9
A5
B9
A5
42
3C
ENDCHAR
STARTCHAR copyright
ENCODING 169
SWIDTH 600 0
DWIDTH 9 0
BBX 8 8 0 0
BITMAP
3C
42
99
A1
A1
99
42
3C
ENDCHAR
STARTCHAR trademark
ENCODING 170
SWIDTH 600 0
DWIDTH 11 0
BBX 10 5 0 3
BITMAP
F8C0
AD80
2A80
2880
7DC0
ENDCHAR
STARTCHAR acute
ENCODING 171
SWIDTH 600 0
DWIDTH 7 0
BBX 2 2 2 6
BITMAP
40
80
ENDCHAR
STARTCHAR dieresis
ENCODING 172
SWIDTH 600 0
DWIDTH 7 0
BBX 3 1 2 7
BITMAP
A0
ENDCHAR
STARTCHAR notequal
ENCODING 173
SWIDTH 549 0
DWIDTH 7 0
BBX 6 5 0 1
BITMAP
08
FC
10
FC
20
ENDCHAR
STARTCHAR AE
ENCODING 174
SWIDTH 600 0
DWIDTH 7 0
BBX 7 8 0 0
BITMAP
7E
32
54
5C
74
90
92
DE
ENDCHAR
STARTCHAR Oslash
ENCODING 175
SWIDTH 600 0
DWIDTH 7 0
BBX 6 8 0 0
BITMAP
34
48
94
94
A4
A4
48
B0
ENDCHAR
STARTCHAR infinity
ENCODING 176
SWIDTH 713 0
DWIDTH 9 0
BBX 7 3 1 2
BITMAP
6C
92
6C
ENDCHAR
STARTCHAR plusminus
ENCODING 177
SWIDTH 549 0
DWIDTH 7 0
BBX 5 6 1 0
BITMAP
20
20
F8
20
20
F8
ENDCHAR
STARTCHAR lessequal
ENCODING 178
SWIDTH 549 0
DWIDTH 7 0
BBX 6 6 0 0
BITMAP
0C
30
C0
30
0C
FC
ENDCHAR
STARTCHAR greaterequal
ENCODING 179
SWIDTH 549 0
DWIDTH 7 0
BBX 6 6 0 0
BITMAP
C0
30
0C
30
C0
FC
ENDCHAR
STARTCHAR yen
ENCODING 180
SWIDTH 600 0
DWIDTH 7 0
BBX 7 8 0 0
BITMAP
EE
44
28
38
10
38
10
38
ENDCHAR
STARTCHAR mu
ENCODING 181
SWIDTH 576 0
DWIDTH 7 0
BBX 6 8 0 -2
BITMAP
48
48
48
48
48
74
40
80
ENDCHAR
STARTCHAR partialdiff
ENCODING 182
SWIDTH 494 0
DWIDTH 6 0
BBX 4 8 1 0
BITMAP
60
10
10
70
90
90
90
60
ENDCHAR
STARTCHAR summation
ENCODING 183
SWIDTH 713 0
DWIDTH 9 0
BBX 6 9 1 -1
BITMAP
FC
44
20
10
08
10
20
44
FC
ENDCHAR
STARTCHAR product
ENCODING 184
SWIDTH 823 0
DWIDTH 10 0
BBX 8 9 1 -1
BITMAP
FF
42
42
42
42
42
42
42
E7
ENDCHAR
STARTCHAR pi
ENCODING 185
SWIDTH 549 0
DWIDTH 7 0
BBX 7 6 0 0
BITMAP
7C
C8
48
48
4A
4C
ENDCHAR
STARTCHAR integral
ENCODING 186
SWIDTH 274 0
DWIDTH 3 0
BBX 3 10 0 -2
BITMAP
20
40
40
40
40
40
40
40
40
80
ENDCHAR
STARTCHAR ordfeminine
ENCODING 187
SWIDTH 600 0
DWIDTH 7 0
BBX 6 7 0 1
BITMAP
70
88
78
88
74
00
FC
ENDCHAR
STARTCHAR ordmasculine
ENCODING 188
SWIDTH 600 0
DWIDTH 7 0
BBX 5 7 0 1
BITMAP
70
88
88
88
70
00
F8
ENDCHAR
STARTCHAR Omega
ENCODING 189
SWIDTH 768 0
DWIDTH 9 0
BBX 8 8 0 0
BITMAP
3C
42
81
81
81
42
24
E7
ENDCHAR
STARTCHAR ae
ENCODING 190
SWIDTH 600 0
DWIDTH 7 0
BBX 7 6 0 0
BITMAP
6C
92
7E
90
92
6C
ENDCHAR
STARTCHAR oslash
ENCODING 191
SWIDTH 600 0
DWIDTH 7 0
BBX 5 6 1 0
BITMAP
70
88
98
A8
C8
70
ENDCHAR
STARTCHAR questiondown
ENCODING 192
SWIDTH 600 0
DWIDTH 7 0
BBX 5 8 1 -2
BITMAP
20
00
20
20
40
80
88
70
ENDCHAR
STARTCHAR exclamdown
ENCODING 193
SWIDTH 600 0
DWIDTH 7 0
BBX 1 8 3 -2
BITMAP
80
00
80
80
80
80
80
80
ENDCHAR
STARTCHAR logicalnot
ENCODING 194
SWIDTH 600 0
DWIDTH 9 0
BBX 7 3 1 1
BITMAP
FE
02
02
ENDCHAR
STARTCHAR radical
ENCODING 195
SWIDTH 549 0
DWIDTH 7 0
BBX 6 8 0 0
BITMAP
04
04
08
08
D0
50
20
20
ENDCHAR
STARTCHAR florin
ENCODING 196
SWIDTH 600 0
DWIDTH 7 0
BBX 5 10 1 -2
BITMAP
18
20
20
78
20
20
20
20
20
C0
ENDCHAR
STARTCHAR approxequal
ENCODING 197
SWIDTH 549 0
DWIDTH 7 0
BBX 6 4 0 1
BITMAP
64
98
64
98
ENDCHAR
STARTCHAR Delta
ENCODING 198
SWIDTH 612 0
DWIDTH 7 0
BBX 7 8 0 0
BITMAP
10
10
28
28
44
44
82
FE
ENDCHAR
STARTCHAR guillemotleft
ENCODING 199
SWIDTH 600 0
DWIDTH 7 0
BBX 6 5 0 0
BITMAP
24
48
90
48
24
ENDCHAR
STARTCHAR guillemotright
ENCODING 200
SWIDTH 600 0
DWIDTH 7 0
BBX 6 5 0 0
BITMAP
90
48
24
48
90
ENDCHAR
STARTCHAR ellipsis
ENCODING 201
SWIDTH 600 0
DWIDTH 7 0
BBX 5 1 1 0
BITMAP
A8
ENDCHAR
STARTCHAR nbspace
ENCODING 202
SWIDTH 600 0
DWIDTH 7 0
BBX 0 0 7 -2
BITMAP
ENDCHAR
STARTCHAR Agrave
ENCODING 203
SWIDTH 600 0
DWIDTH 7 0
BBX 7 10 0 0
BITMAP
40
20
30
10
10
28
28
7C
44
EE
ENDCHAR
STARTCHAR Atilde
ENCODING 204
SWIDTH 600 0
DWIDTH 7 0
BBX 7 10 0 0
BITMAP
64
98
30
10
10
28
28
7C
44
EE
ENDCHAR
STARTCHAR Otilde
ENCODING 205
SWIDTH 600 0
DWIDTH 7 0
BBX 6 10 0 0
BITMAP
68
B0
30
48
84
84
84
84
48
30
ENDCHAR
STARTCHAR OE
ENCODING 206
SWIDTH 600 0
DWIDTH 7 0
BBX 7 8 0 0
BITMAP
3E
52
94
9C
94
90
52
3E
ENDCHAR
STARTCHAR oe
ENCODING 207
SWIDTH 600 0
DWIDTH 7 0
BBX 7 6 0 0
BITMAP
6C
92
9E
90
92
6C
ENDCHAR
STARTCHAR endash
ENCODING 208
SWIDTH 600 0
DWIDTH 7 0
BBX 4 1 1 3
BITMAP
F0
ENDCHAR
STARTCHAR emdash
ENCODING 209
SWIDTH 600 0
DWIDTH 7 0
BBX 6 1 0 3
BITMAP
FC
ENDCHAR
STARTCHAR quotedblleft
ENCODING 210
SWIDTH 600 0
DWIDTH 7 0
BBX 5 3 1 6
BITMAP
48
90
90
ENDCHAR
STARTCHAR quotedblright
ENCODING 211
SWIDTH 600 0
DWIDTH 7 0
BBX 5 3 0 6
BITMAP
48
48
90
ENDCHAR
STARTCHAR quoteleft
ENCODING 212
SWIDTH 600 0
DWIDTH 7 0
BBX 2 3 2 6
BITMAP
40
80
80
ENDCHAR
STARTCHAR quoteright
ENCODING 213
SWIDTH 600 0
DWIDTH 7 0
BBX 2 3 2 6
BITMAP
40
40
80
ENDCHAR
STARTCHAR divide
ENCODING 214
SWIDTH 549 0
DWIDTH 7 0
BBX 5 5 1 1
BITMAP
20
00
F8
00
20
ENDCHAR
STARTCHAR lozenge
ENCODING 215
SWIDTH 494 0
DWIDTH 6 0
BBX 5 8 0 0
BITMAP
20
20
50
88
88
50
20
20
ENDCHAR
STARTCHAR ydieresis
ENCODING 216
SWIDTH 600 0
DWIDTH 7 0
BBX 7 10 0 -2
BITMAP
28
00
EE
44
28
28
10
10
20
70
ENDCHAR
STARTCHAR Ydieresis
ENCODING 217
SWIDTH 600 0
DWIDTH 7 0
BBX 7 10 0 0
BITMAP
28
00
EE
44
28
10
10
10
10
38
ENDCHAR
STARTCHAR fraction
ENCODING 218
SWIDTH 600 0
DWIDTH 7 0
BBX 4 8 1 0
BITMAP
10
10
20
20
40
40
80
80
ENDCHAR
STARTCHAR currency
ENCODING 219
SWIDTH 600 0
DWIDTH 7 0
BBX 7 7 0 0
BITMAP
3C
42
F8
40
F0
42
3C
ENDCHAR
STARTCHAR guilsinglleft
ENCODING 220
SWIDTH 600 0
DWIDTH 7 0
BBX 3 5 1 0
BITMAP
20
40
80
40
20
ENDCHAR
STARTCHAR guilsinglright
ENCODING 221
SWIDTH 600 0
DWIDTH 7 0
BBX 3 5 2 0
BITMAP
80
40
20
40
80
ENDCHAR
STARTCHAR fi
ENCODING 222
SWIDTH 600 0
DWIDTH 7 0
BBX 7 8 0 0
BITMAP
38
40
F8
48
48
48
48
FE
ENDCHAR
STARTCHAR fl
ENCODING 223
SWIDTH 600 0
DWIDTH 7 0
BBX 7 8 0 0
BITMAP
38
48
E8
48
48
48
48
FE
ENDCHAR
STARTCHAR daggerdbl
ENCODING 224
SWIDTH 600 0
DWIDTH 7 0
BBX 5 10 1 -2
BITMAP
20
20
F8
20
20
20
20
F8
20
20
ENDCHAR
STARTCHAR periodcentered
ENCODING 225
SWIDTH 600 0
DWIDTH 7 0
BBX 1 1 2 3
BITMAP
80
ENDCHAR
STARTCHAR quotesinglbase
ENCODING 226
SWIDTH 600 0
DWIDTH 7 0
BBX 2 2 2 -1
BITMAP
40
80
ENDCHAR
STARTCHAR quotedblbase
ENCODING 227
SWIDTH 600 0
DWIDTH 7 0
BBX 5 2 0 -1
BITMAP
48
90
ENDCHAR
STARTCHAR perthousand
ENCODING 228
SWIDTH 600 0
DWIDTH 7 0
BBX 7 8 0 1
BITMAP
40
A0
4C
30
C0
24
5A
24
ENDCHAR
STARTCHAR Acircumflex
ENCODING 229
SWIDTH 600 0
DWIDTH 7 0
BBX 7 10 0 0
BITMAP
10
28
74
10
10
28
28
7C
44
EE
ENDCHAR
STARTCHAR Ecircumflex
ENCODING 230
SWIDTH 600 0
DWIDTH 7 0
BBX 6 10 0 0
BITMAP
20
50
FC
44
50
70
50
40
44
FC
ENDCHAR
STARTCHAR Aacute
ENCODING 231
SWIDTH 600 0
DWIDTH 7 0
BBX 7 10 0 0
BITMAP
08
10
30
10
10
28
28
7C
44
EE
ENDCHAR
STARTCHAR Edieresis
ENCODING 232
SWIDTH 600 0
DWIDTH 7 0
BBX 6 10 0 0
BITMAP
48
00
FC
44
50
70
50
40
44
FC
ENDCHAR
STARTCHAR Egrave
ENCODING 233
SWIDTH 600 0
DWIDTH 7 0
BBX 6 10 0 0
BITMAP
20
10
FC
44
50
70
50
40
44
FC
ENDCHAR
STARTCHAR Iacute
ENCODING 234
SWIDTH 600 0
DWIDTH 7 0
BBX 5 10 1 0
BITMAP
10
20
F8
20
20
20
20
20
20
F8
ENDCHAR
STARTCHAR Icircumflex
ENCODING 235
SWIDTH 600 0
DWIDTH 7 0
BBX 5 10 1 0
BITMAP
20
50
F8
20
20
20
20
20
20
F8
ENDCHAR
STARTCHAR Idieresis
ENCODING 236
SWIDTH 600 0
DWIDTH 7 0
BBX 5 10 1 0
BITMAP
50
00
F8
20
20
20
20
20
20
F8
ENDCHAR
STARTCHAR Igrave
ENCODING 237
SWIDTH 600 0
DWIDTH 7 0
BBX 5 10 1 0
BITMAP
40
20
F8
20
20
20
20
20
20
F8
ENDCHAR
STARTCHAR Oacute
ENCODING 238
SWIDTH 600 0
DWIDTH 7 0
BBX 6 10 0 0
BITMAP
10
20
30
48
84
84
84
84
48
30
ENDCHAR
STARTCHAR Ocircumflex
ENCODING 239
SWIDTH 600 0
DWIDTH 7 0
BBX 6 10 0 0
BITMAP
30
48
30
48
84
84
84
84
48
30
ENDCHAR
STARTCHAR apple
ENCODING 240
SWIDTH 790 0
DWIDTH 10 0
BBX 9 9 0 0
BITMAP
0C00
0800
7700
FF80
FF00
FF00
FF80
7F00
3600
ENDCHAR
STARTCHAR Ograve
ENCODING 241
SWIDTH 600 0
DWIDTH 7 0
BBX 6 10 0 0
BITMAP
20
10
30
48
84
84
84
84
48
30
ENDCHAR
STARTCHAR Uacute
ENCODING 242
SWIDTH 600 0
DWIDTH 7 0
BBX 7 10 0 0
BITMAP
08
10
EE
44
44
44
44
44
44
38
ENDCHAR
STARTCHAR Ucircumflex
ENCODING 243
SWIDTH 600 0
DWIDTH 7 0
BBX 7 10 0 0
BITMAP
10
28
EE
44
44
44
44
44
44
38
ENDCHAR
STARTCHAR Ugrave
ENCODING 244
SWIDTH 600 0
DWIDTH 7 0
BBX 7 10 0 0
BITMAP
20
10
EE
44
44
44
44
44
44
38
ENDCHAR
STARTCHAR dotlessi
ENCODING 245
SWIDTH 600 0
DWIDTH 7 0
BBX 5 6 1 0
BITMAP
E0
20
20
20
20
F8
ENDCHAR
STARTCHAR circumflex
ENCODING 246
SWIDTH 600 0
DWIDTH 7 0
BBX 5 3 0 5
BITMAP
20
50
88
ENDCHAR
STARTCHAR tilde
ENCODING 247
SWIDTH 600 0
DWIDTH 7 0
BBX 5 2 0 5
BITMAP
68
B0
ENDCHAR
STARTCHAR macron
ENCODING 248
SWIDTH 600 0
DWIDTH 7 0
BBX 4 1 1 5
BITMAP
F0
ENDCHAR
STARTCHAR breve
ENCODING 249
SWIDTH 600 0
DWIDTH 7 0
BBX 4 2 1 5
BITMAP
90
60
ENDCHAR
STARTCHAR dotaccent
ENCODING 250
SWIDTH 600 0
DWIDTH 7 0
BBX 1 1 2 6
BITMAP
80
ENDCHAR
STARTCHAR ring
ENCODING 251
SWIDTH 600 0
DWIDTH 7 0
BBX 4 4 1 4
BITMAP
60
90
90
60
ENDCHAR
STARTCHAR cedilla
ENCODING 252
SWIDTH 600 0
DWIDTH 7 0
BBX 3 4 2 -2
BITMAP
40
60
20
C0
ENDCHAR
STARTCHAR hungarumlaut
ENCODING 253
SWIDTH 600 0
DWIDTH 7 0
BBX 4 2 1 6
BITMAP
50
A0
ENDCHAR
STARTCHAR ogonek
ENCODING 254
SWIDTH 600 0
DWIDTH 7 0
BBX 3 4 2 -2
BITMAP
40
80
80
60
ENDCHAR
STARTCHAR caron
ENCODING 255
SWIDTH 600 0
DWIDTH 7 0
BBX 3 2 1 8
BITMAP
A0
40
ENDCHAR
ENDFONT
